<svg xmlns="http://www.w3.org/2000/svg" width="32" height="32" viewBox="0 0 32 32" fill="none">
  <!-- Pixel "G" made of small squares — Game + Gallery grid -->
  <!-- Row 1 -->
  <rect x="10" y="4" width="4" height="4" rx="0.5" fill="#A78BFA"/>
  <rect x="14" y="4" width="4" height="4" rx="0.5" fill="#A78BFA"/>
  <rect x="18" y="4" width="4" height="4" rx="0.5" fill="#7C3AED"/>

  <!-- Row 2 -->
  <rect x="6" y="8" width="4" height="4" rx="0.5" fill="#A78BFA"/>

  <!-- Row 3 -->
  <rect x="6" y="12" width="4" height="4" rx="0.5" fill="#7C3AED"/>

  <!-- Row 4 — the horizontal bar of G -->
  <rect x="6" y="16" width="4" height="4" rx="0.5" fill="#7C3AED"/>
  <rect x="14" y="16" width="4" height="4" rx="0.5" fill="#F43F5E"/>
  <rect x="18" y="16" width="4" height="4" rx="0.5" fill="#F43F5E"/>
  <rect x="22" y="16" width="4" height="4" rx="0.5" fill="#F43F5E"/>

  <!-- Row 5 -->
  <rect x="6" y="20" width="4" height="4" rx="0.5" fill="#A78BFA"/>
  <rect x="22" y="20" width="4" height="4" rx="0.5" fill="#7C3AED"/>

  <!-- Row 6 -->
  <rect x="10" y="24" width="4" height="4" rx="0.5" fill="#A78BFA"/>
  <rect x="14" y="24" width="4" height="4" rx="0.5" fill="#7C3AED"/>
  <rect x="18" y="24" width="4" height="4" rx="0.5" fill="#7C3AED"/>
  <rect x="22" y="24" width="4" height="4" rx="0.5" fill="#A78BFA"/>
</svg>
